HIERARCHY
ROOT SimulationBone
{
	OFFSET 0.000000 0.000000 0.000000
	CHANNELS 6 Xposition Yposition Zposition Zrotation Yrotation Xrotation 
	JOINT Hips
	{
		OFFSET 0.000000 0.000000 0.000000
		CHANNELS 6 Xposition Yposition Zposition Zrotation Yrotation Xrotation 
		JOINT RightUpLeg
		{
			OFFSET 0.103456 1.857840 10.548501
			CHANNELS 3 Zrotation Yrotation Xrotation
			JOINT RightLeg
			{
				OFFSET 43.499992 -0.000038 -0.000006
				CHANNELS 3 Zrotation Yrotation Xrotation
				JOINT RightFoot
				{
					OFFSET 42.372196 0.000031 0.000002
					CHANNELS 3 Zrotation Yrotation Xrotation
					JOINT RightToe
					{
						OFFSET 17.299974 -0.000010 -0.000017
						CHANNELS 3 Zrotation Yrotation Xrotation
						End Site
						{
							OFFSET 0.000000 0.000000 0.000000
						}
					}
				}
			}
		}
		JOINT LeftUpLeg
		{
			OFFSET 0.103462 1.857831 -10.548510
			CHANNELS 3 Zrotation Yrotation Xrotation
			JOINT LeftLeg
			{
				OFFSET 43.500046 -0.000015 0.000008
				CHANNELS 3 Zrotation Yrotation Xrotation
				JOINT LeftFoot
				{
					OFFSET 42.372265 -0.000015 0.000004
					CHANNELS 3 Zrotation Yrotation Xrotation
					JOINT LeftToe
					{
						OFFSET 17.299995 -0.000004 0.000013
						CHANNELS 3 Zrotation Yrotation Xrotation
						End Site
						{
							OFFSET 0.000000 0.000000 0.000000
						}
					}
				}
			}
		}
		JOINT Spine
		{
			OFFSET 6.901966 -2.603716 -0.000002
			CHANNELS 3 Zrotation Yrotation Xrotation
			JOINT Spine1
			{
				OFFSET 12.588102 -0.000001 0.000005
				CHANNELS 3 Zrotation Yrotation Xrotation
				JOINT Spine2
				{
					OFFSET 12.343201 -0.000023 -0.000011
					CHANNELS 3 Zrotation Yrotation Xrotation
					JOINT Neck
					{
						OFFSET 25.832901 0.000011 0.000007
						CHANNELS 3 Zrotation Yrotation Xrotation
						JOINT Head
						{
							OFFSET 11.766600 -0.000002 0.000002
							CHANNELS 3 Zrotation Yrotation Xrotation
							End Site
							{
								OFFSET 0.000000 0.000000 0.000000
							}
						}
					}
					JOINT RightShoulder
					{
						OFFSET 19.745907 -1.480350 6.000119
						CHANNELS 3 Zrotation Yrotation Xrotation
						JOINT RightArm
						{
							OFFSET 11.284122 -0.000013 -0.000023
							CHANNELS 3 Zrotation Yrotation Xrotation
							JOINT RightForeArm
							{
								OFFSET 33.000057 0.000005 0.000025
								CHANNELS 3 Zrotation Yrotation Xrotation
								JOINT RightHand
								{
									OFFSET 25.199997 0.000020 0.000019
									CHANNELS 3 Zrotation Yrotation Xrotation
									End Site
									{
										OFFSET 0.000000 0.000000 0.000000
									}
								}
							}
						}
					}
					JOINT LeftShoulder
					{
						OFFSET 19.746096 -1.480352 -6.000062
						CHANNELS 3 Zrotation Yrotation Xrotation
						JOINT LeftArm
						{
							OFFSET 11.284150 0.000007 -0.000012
							CHANNELS 3 Zrotation Yrotation Xrotation
							JOINT LeftForeArm
							{
								OFFSET 33.000092 0.000019 0.000012
								CHANNELS 3 Zrotation Yrotation Xrotation
								JOINT LeftHand
								{
									OFFSET 25.199797 0.000118 0.000427
									CHANNELS 3 Zrotation Yrotation Xrotation
									End Site
									{
										OFFSET 0.000000 0.000000 0.000000
									}
								}
							}
						}
					}
				}
			}
		}
	}
}
MOTION
Frames: 11
Frame Time: 0.016667
178.328783 0.000000 512.409773 0.000000 92.226742 0.000000 -1.363475 86.156067 -1.358783 89.166462 -2.711404 179.270960 -177.757681 1.754897 167.762273 -38.904883 3.392658 5.453344 93.688802 -3.606794 1.273698 21.454558 0.003104 0.000018 147.625686 0.675991 -162.433182 -18.233267 -2.957656 1.553245 61.333841 -1.910392 -1.730332 21.454550 -0.003088 -0.000000 6.545532 -0.346180 -2.992210 3.094398 -0.613566 -5.992542 2.778170 -0.649818 -5.988753 10.894227 9.959618 9.823627 -16.275219 -11.028702 15.401723 146.600076 -75.624738 32.673096 -19.546441 53.426841 15.816190 -33.466181 -11.222740 1.082888 7.338767 1.978829 10.300040 -141.513169 79.255808 40.643054 29.898196 -60.571878 -54.877423 -37.943964 13.695394 -1.320394 7.529196 -3.128226 -8.537256 
178.303093 0.000000 514.244385 0.000000 92.784961 0.000000 -1.541788 85.951453 -1.669631 89.001772 -3.509398 179.475836 -178.126413 3.527863 167.526514 -37.142911 3.841847 4.110169 96.491803 -2.655215 1.921235 21.454556 0.003111 0.000019 146.337006 2.268010 -162.797700 -18.214711 -3.168535 1.298296 60.641176 -0.242133 1.706465 21.454551 -0.003098 0.000001 6.595991 -0.536911 -2.954349 3.205011 -0.993106 -5.922389 2.888714 -1.028924 -5.916328 10.873331 9.687900 9.467408 -16.867592 -10.636466 14.933441 147.122036 -75.638063 32.141817 -19.688083 53.127349 16.214478 -33.388102 -11.307128 1.086949 7.447813 1.336253 10.189538 -141.663638 79.433613 40.481859 30.737540 -60.811480 -56.292758 -37.832024 13.757283 -1.319506 7.694428 -4.157495 -9.558055 
178.254033 0.000000 516.054624 0.000000 93.262396 0.000000 -1.577226 85.646873 -1.964468 89.092709 -4.509241 179.768356 -178.575228 5.242401 168.330927 -36.172261 3.885864 3.150825 98.870300 -2.013964 2.179485 21.454557 0.003111 0.000018 145.388307 4.391493 -163.151458 -18.379902 -3.130069 1.064316 61.424273 3.188746 9.370810 21.454553 -0.003101 0.000000 6.690150 -0.756904 -2.921493 3.404370 -1.428774 -5.864105 3.087981 -1.464237 -5.855428 10.985249 9.236503 9.135894 -17.477387 -10.077950 14.396323 147.262947 -75.630332 31.999018 -19.507002 53.009178 16.345210 -33.484045 -11.385022 1.093859 7.436367 0.675093 10.347370 -141.591771 79.746646 40.541041 31.485139 -61.021140 -57.538440 -37.695393 13.788725 -1.320366 7.974160 -6.075328 -10.716675 
178.183566 0.000000 517.840249 0.000000 93.662519 0.000000 -1.534461 85.319569 -2.218753 89.297210 -5.511142 -179.904373 -179.107147 6.796354 169.730993 -35.683040 3.676874 2.428612 100.848055 -1.552534 2.220384 21.454558 0.003108 0.000017 144.559343 6.731585 -163.373683 -19.073383 -2.941028 0.506455 63.573952 6.922227 17.966001 21.454553 -0.003098 -0.000001 6.798183 -0.967400 -2.872365 3.630578 -1.845364 -5.774020 3.314060 -1.880283 -5.762836 11.144995 8.697462 8.797915 -17.944498 -9.482682 13.802612 147.403742 -75.592921 31.858167 -19.085692 53.009486 16.328321 -33.677264 -11.416186 1.099973 7.348098 -0.025364 10.545069 -141.401344 80.103876 40.718903 32.113389 -61.141292 -58.574062 -37.584741 13.802495 -1.321961 8.335798 -8.140496 -11.942119 
178.093650 0.000000 519.601020 0.000000 93.988758 0.000000 -1.478474 85.046783 -2.410538 89.473580 -6.316355 -179.590121 -179.758940 8.083298 171.281023 -35.372821 3.386195 1.806958 102.454100 -1.159457 2.228542 21.454560 0.003105 0.000017 143.643030 8.974198 -163.346528 -20.642087 -2.720979 -0.723976 66.249392 9.676642 23.906260 21.454551 -0.003093 0.000000 6.890178 -1.129669 -2.785339 3.821326 -2.167823 -5.607027 3.504638 -2.201735 -5.593898 11.267269 8.161951 8.423782 -18.107009 -8.976473 13.169789 147.922129 -75.515633 31.335960 -18.507542 53.065995 16.283674 -33.890892 -11.360421 1.101099 7.231961 -0.786161 10.553309 -141.209963 80.414289 40.899912 32.589345 -61.112597 -59.354000 -37.550730 13.811364 -1.323247 8.710452 -9.612701 -13.148053 
177.986247 0.000000 521.336695 0.000000 94.244488 0.000000 -1.459466 84.900108 -2.526746 89.524609 -6.773476 -179.339390 179.438131 9.012957 172.611820 -34.995841 3.144605 1.186375 103.675474 -0.760148 2.346947 21.454560 0.003106 0.000018 142.531869 10.846920 -163.081056 -23.305283 -2.621516 -2.701608 68.337529 10.920653 24.602947 21.454546 -0.003087 0.000002 6.944505 -1.216126 -2.643678 3.931543 -2.342737 -5.327799 3.614655 -2.374963 -5.313609 11.323193 7.705984 8.003973 -17.909409 -8.648947 12.531370 149.009431 -75.407945 30.236880 -17.814950 53.154876 16.348108 -34.065455 -11.203569 1.094769 7.127333 -1.631270 10.178020 -141.182829 80.610869 40.919480 32.852877 -60.900177 -59.863749 -37.609879 13.829665 -1.323689 9.009182 -9.988695 -14.223658 
177.863318 0.000000 523.047033 0.000000 94.433017 0.000000 -1.468065 84.928551 -2.583425 89.527309 -6.920394 -179.232303 178.580118 9.574592 173.668802 -34.518651 2.883485 0.609081 104.323093 -0.379067 2.521266 21.454560 0.003110 0.000018 141.475292 12.222103 -163.082255 -26.761116 -2.709580 -4.395854 69.892860 11.027305 22.429646 21.454545 -0.003083 0.000003 6.972637 -1.243802 -2.451273 3.985244 -2.403368 -4.944540 3.668135 -2.433286 -4.929982 11.509868 7.349299 7.601896 -17.730597 -8.462813 11.972767 150.169930 -75.373736 29.058082 -16.879587 53.407535 16.733874 -34.211266 -11.035473 1.086922 7.015607 -2.592749 9.370245 -141.601101 80.721436 40.491235 32.742341 -60.567206 -60.220745 -37.642162 13.878006 -1.324878 9.204349 -9.698242 -15.033188 
177.726823 0.000000 524.731794 0.000000 94.557591 0.000000 -1.482005 85.153275 -2.600294 89.578454 -6.848076 -179.332748 177.765484 9.801527 174.432228 -33.979104 2.542830 0.151053 104.239285 -0.062571 2.658601 21.454558 0.003114 0.000017 140.722574 13.032467 -163.818570 -30.658835 -2.887504 -4.771720 71.378962 10.267271 20.336576 21.454548 -0.003083 0.000001 6.992234 -1.238538 -2.221791 4.019541 -2.399967 -4.485746 3.702203 -2.427131 -4.471213 11.977961 7.067322 7.292057 -17.906217 -8.333668 11.562486 151.069353 -75.506039 28.134292 -15.562037 53.918802 17.619533 -34.343891 -10.941170 1.083649 6.880735 -3.690999 8.176269 -142.661040 80.791869 39.414030 32.093420 -60.199959 -60.467454 -37.518974 13.954610 -1.326575 9.284668 -9.275490 -15.435843 
177.578722 0.000000 526.390736 0.000000 94.621390 0.000000 -1.488992 85.506668 -2.584596 89.679833 -6.670763 -179.603384 176.948550 9.836819 174.693249 -33.494950 2.303011 -0.112096 103.573493 0.133626 2.724416 21.454557 0.003115 0.000016 140.237935 13.380201 -165.164096 -34.958543 -2.986244 -3.892442 72.968966 8.652221 18.295512 21.454553 -0.003088 -0.000001 7.012600 -1.216684 -1.986866 4.054669 -2.363705 -4.015495 3.737126 -2.388045 -4.001186 12.470821 6.704021 7.129441 -18.163107 -8.083619 11.259985 152.560032 -75.717273 26.604036 -13.911995 54.501438 18.908048 -34.430043 -10.882593 1.081767 6.762991 -4.887568 6.875323 -144.106947 80.852726 37.945795 30.812246 -59.875820 -60.190767 -37.214117 13.961856 -1.319915 9.145935 -8.742583 -15.252951 
177.420977 0.000000 528.023619 0.000000 94.627534 0.000000 -1.487379 85.918374 -2.540120 89.788273 -6.472255 -179.975095 176.068014 9.805156 174.323933 -33.124820 2.326037 -0.145265 102.533024 0.179703 2.710910 21.454557 0.003110 0.000016 139.952196 13.411441 -166.819074 -39.590422 -2.890278 -2.158522 74.709988 6.318964 15.788551 21.454552 -0.003096 -0.000000 7.033823 -1.186375 -1.776164 4.091884 -2.309820 -3.593441 3.774187 -2.331615 -3.579452 12.699908 6.129869 7.134483 -18.160821 -7.594306 11.010672 155.431613 -75.871587 23.671222 -12.005788 54.958556 20.444450 -34.449904 -10.811145 1.077539 6.703689 -6.094441 5.721282 -145.542374 80.935821 36.487390 28.875650 -59.651019 -59.042104 -36.751044 13.825243 -1.299520 8.785247 -8.046573 -14.491528 
177.255548 0.000000 529.630202 0.000000 94.579090 0.000000 -1.508482 86.395844 -2.469156 89.773122 -6.191950 179.646849 175.130982 9.667408 173.722597 -32.603053 2.467010 -0.090629 101.249009 0.168662 2.639768 21.454557 0.003106 0.000017 139.907722 13.248001 -168.356349 -44.074359 -2.689669 -0.180096 76.321168 3.956628 13.399478 21.454551 -0.003099 0.000001 7.027856 -1.132249 -1.593539 4.074745 -2.208245 -3.226148 3.756945 -2.227820 -3.212768 12.655480 5.465005 7.206592 -17.891185 -7.096415 10.808720 158.950917 -75.916783 20.082994 -9.720641 55.317195 22.236723 -34.486399 -10.759156 1.074950 6.732976 -7.093492 4.637951 -146.449197 81.083846 35.562991 26.450219 -59.557540 -57.370151 -36.248001 13.659133 -1.277158 8.678902 -7.371434 -13.923849 
